<?xml version="1.0" standalone="no"?>
<!DOCTYPE svg PUBLIC "-//W3C//DTD SVG 20010904//EN"
 "http://www.w3.org/TR/2001/REC-SVG-20010904/DTD/svg10.dtd">
<svg version="1.0" xmlns="http://www.w3.org/2000/svg"
 width="512.000000pt" height="512.000000pt" viewBox="0 0 512.000000 512.000000"
 preserveAspectRatio="xMidYMid meet">
<metadata>
Created by potrace 1.11, written by Peter Selinger 2001-2013
</metadata>
<g transform="translate(0.000000,512.000000) scale(0.100000,-0.100000)"
fill="#000000" stroke="none">
<path d="M2960 5116 c0 -4 26 -19 58 -34 108 -53 200 -129 220 -182 5 -14 8
-56 7 -93 -3 -84 16 -118 95 -165 93 -55 119 -84 150 -171 13 -34 28 -65 34
-69 6 -3 46 -7 89 -8 90 -2 86 -18 30 136 -40 106 -57 126 -141 160 -97 39
-116 58 -142 147 -29 98 -48 126 -123 174 -79 51 -277 126 -277 105z"/>
<path d="M2573 4870 c-13 -5 -23 -11 -23 -12 0 -2 28 -4 61 -5 170 -6 265 -84
270 -223 4 -115 47 -155 178 -164 130 -10 147 -16 191 -73 34 -43 52 -86 57
-136 5 -47 2 -56 -22 -85 l-27 -32 52 0 51 0 -5 -55 c-7 -60 -5 -62 50 -46 44
12 66 -3 62 -42 l-3 -32 46 3 c57 4 98 -15 134 -62 28 -37 20 -36 162 -20 80
9 115 -4 288 -106 72 -42 157 -87 190 -99 82 -31 128 -60 121 -78 -3 -8 -1
-11 4 -8 5 3 24 -8 41 -25 18 -16 33 -30 33 -30 1 0 2 46 1 103 0 80 -4 108
-18 127 -9 13 -17 32 -17 42 0 10 -5 18 -11 18 -5 0 -7 -4 -4 -10 11 -17 1
-12 -91 48 -49 32 -149 93 -221 136 -151 89 -193 123 -193 159 0 59 -69 120
-200 177 -59 26 -87 33 -133 31 -74 -2 -118 21 -207 104 -89 83 -126 98 -270
109 -19 2 -43 4 -52 5 -30 2 -76 59 -92 114 -22 76 -81 131 -170 159 -42 13
-206 19 -233 8z"/>
<path d="M3996 4744 c-18 -18 -20 -42 -6 -64 8 -11 9 -8 4 13 -18 80 99 71
170 -14 15 -17 29 -30 31 -28 9 9 -53 67 -92 88 -50 25 -86 27 -107 5z"/>
<path d="M4000 4656 c0 -2 7 -7 16 -10 8 -3 12 -2 9 4 -6 10 -25 14 -25 6z"/>
<path d="M4200 4626 c0 -8 4 -17 9 -20 5 -4 7 3 4 14 -6 23 -13 26 -13 6z"/>
<path d="M4212 4426 c-3 -173 -2 -176 47 -191 16 -5 21 -4 17 4 -4 6 -16 11
-26 11 -28 0 -32 27 -24 190 4 85 3 150 -2 150 -5 0 -10 -74 -12 -164z"/>
<path d="M2249 4398 c0 -18 -1 -66 -1 -106 1 -81 1 -81 -85 -103 -58 -14 -67
-25 -28 -35 14 -3 25 -9 25 -13 -1 -6 -48 -28 -180 -83 l-55 -23 45 -5 45 -5
-150 -74 -150 -74 42 -9 43 -9 -68 -52 c-37 -28 -80 -63 -97 -78 -16 -15 -43
-38 -60 -52 l-30 -26 33 1 c18 1 34 -1 36 -3 3 -2 -38 -62 -91 -132 -52 -70
-93 -130 -90 -133 3 -3 19 2 36 10 16 9 33 16 36 16 9 0 -2 -44 -39 -153 -20
-58 -36 -108 -36 -111 0 -3 15 1 34 9 l34 14 8 -37 c4 -20 9 -41 10 -47 6 -17
34 -169 34 -182 0 -22 16 -14 29 14 l13 27 16 -22 c9 -12 35 -56 57 -98 44
-83 65 -108 65 -78 0 11 5 26 10 34 8 12 15 9 42 -20 18 -20 51 -59 73 -88 21
-29 43 -52 49 -52 5 0 6 3 3 6 -3 4 -2 15 4 25 7 14 14 17 27 10 16 -9 147
-54 205 -72 27 -8 29 -7 23 17 -6 24 -5 25 23 19 36 -8 39 -1 37 119 -1 88 -1
89 -26 92 -39 4 -144 17 -150 19 -137 39 -229 103 -286 201 -33 57 -62 175
-57 238 15 203 168 407 448 596 l78 52 251 2 251 1 1 88 c1 48 4 90 7 93 3 3
20 8 39 10 18 3 44 8 58 11 14 3 113 6 220 8 193 2 194 2 211 26 25 35 29 102
7 132 -14 18 -20 20 -108 32 -30 5 -62 10 -70 11 -8 2 -35 6 -60 10 -43 6 -44
6 -25 -10 19 -16 11 -17 -124 -13 -90 3 -146 9 -150 16 -4 6 -6 24 -5 41 l2
30 -244 0 -244 0 -1 -32z m467 -35 c-1 -41 -4 -48 -21 -48 -15 0 -20 7 -19 28
l1 27 -186 -2 -185 -3 1 -65 c1 -62 -6 -79 -32 -80 -8 0 -13 169 -6 188 1 1
102 2 225 2 l224 0 -2 -47z m44 -39 c0 -8 -4 -12 -10 -9 -5 3 -10 10 -10 16 0
5 5 9 10 9 6 0 10 -7 10 -16z m-44 -281 l-1 -78 -223 -2 -224 -2 39 21 c34 19
56 22 193 23 86 0 160 4 165 7 6 3 10 29 9 57 -1 47 0 51 21 51 22 0 23 -3 21
-77z"/>
<path d="M4300 4230 c8 -5 25 -10 37 -10 29 0 74 -40 76 -67 1 -13 5 -23 9
-23 24 0 -19 77 -50 88 -44 17 -90 24 -72 12z"/>
<path d="M1865 4131 c5 -17 -4 -18 -135 -13 -92 3 -140 1 -140 -6 0 -5 8 -13
17 -16 28 -11 2 -23 -62 -30 -72 -7 -188 -26 -194 -31 -2 -2 9 -10 23 -17 26
-11 19 -14 -111 -54 -76 -23 -151 -48 -168 -55 -26 -10 -27 -13 -10 -17 24 -5
45 -22 26 -22 -6 0 -33 -9 -59 -20 -127 -56 -172 -90 -117 -90 l27 0 -33 -27
c-19 -16 -47 -43 -64 -62 -16 -19 -40 -46 -52 -59 -26 -29 -30 -47 -8 -38 17
6 19 -9 5 -50 -5 -16 -11 -44 -14 -62 -4 -28 -2 -32 14 -27 14 5 20 -1 25 -27
4 -18 14 -50 22 -71 13 -33 17 -35 27 -21 11 14 17 9 46 -37 19 -30 36 -56 38
-59 2 -3 8 3 13 13 6 9 14 15 19 12 8 -5 21 -70 24 -120 1 -13 7 -19 19 -17
33 6 17 -26 -33 -63 l-34 -25 27 0 c43 0 32 -17 -23 -35 -27 -9 -50 -21 -50
-26 0 -6 4 -8 9 -4 5 3 12 2 15 -3 4 -7 -125 -63 -156 -68 -21 -4 -22 -6 -4
-13 15 -6 -2 -14 -67 -35 -48 -14 -87 -29 -87 -31 0 -9 123 6 185 22 33 8 92
30 130 49 144 72 211 141 221 230 8 63 -20 121 -102 214 -63 72 -99 140 -95
184 5 84 89 184 214 258 46 27 207 104 237 113 3 1 50 16 105 33 102 32 286
72 334 72 41 0 55 13 42 38 -10 20 -7 24 46 50 l57 29 -55 18 c-30 10 -58 20
-64 24 -22 13 -36 9 -30 -8z"/>
<path d="M4416 4105 c-3 -8 -1 -15 4 -15 6 0 10 7 10 15 0 8 -2 15 -4 15 -2 0
-6 -7 -10 -15z"/>
<path d="M4414 4055 c0 -14 4 -25 8 -25 4 0 7 9 5 20 -5 29 -13 33 -13 5z"/>
<path d="M4410 3993 c0 -21 3 -24 9 -14 5 8 7 20 4 28 -8 21 -13 15 -13 -14z"/>
<path d="M2759 3978 c-1 -2 -2 -43 -4 -91 -2 -89 7 -117 38 -117 38 0 208
-148 294 -255 120 -149 203 -320 203 -420 0 -112 -79 -230 -250 -375 -36 -30
-67 -58 -70 -61 -14 -16 -224 -167 -229 -164 -3 2 -5 45 -5 97 1 51 0 98 -2
103 -4 8 -421 13 -479 6 -11 -1 -13 -461 -2 -478 3 -5 24 -9 47 -7 22 1 40 1
40 -1 0 -1 -37 -31 -82 -66 -309 -239 -473 -412 -600 -631 -89 -154 -96 -170
-123 -273 -30 -112 -42 -319 -24 -410 5 -27 11 -59 13 -71 29 -159 169 -371
329 -499 102 -82 303 -183 417 -210 75 -18 168 -36 230 -44 72 -9 349 -8 400
1 14 3 45 8 70 12 275 45 735 236 924 383 55 43 59 48 38 53 -31 7 -325 4
-437 -5 -155 -12 -168 -13 -235 -15 -80 -3 -89 -8 -59 -31 13 -10 21 -20 18
-23 -8 -8 -103 -16 -209 -18 -52 -1 -99 -3 -103 -6 -5 -2 2 -15 14 -29 l23
-24 -29 5 c-17 2 -55 8 -85 11 -58 8 -79 11 -122 21 -26 5 -28 3 -28 -25 0
-36 5 -35 -74 -15 -33 9 -70 18 -80 20 -11 2 -36 12 -58 22 -37 19 -38 19 -38
1 0 -16 -5 -18 -27 -13 -40 9 -189 79 -197 93 -4 6 -12 11 -17 11 -6 0 -8 -4
-5 -8 2 -4 1 -14 -4 -22 -7 -11 -13 -10 -35 4 -49 32 -163 155 -212 229 -36
55 -49 67 -51 52 -5 -23 -22 -45 -22 -27 0 14 0 14 -12 62 -16 67 -38 185 -44
235 -7 59 -9 63 -34 47 -11 -7 -22 -12 -24 -12 -3 0 7 28 21 62 14 35 27 71
30 81 3 10 25 55 49 100 24 44 44 82 44 83 0 2 -17 0 -37 -3 l-38 -6 35 38
c19 21 81 84 137 141 56 56 99 104 96 108 -4 3 -18 6 -31 6 l-25 0 23 25 c22
23 183 135 194 135 3 0 5 -24 5 -53 -1 -28 -1 -57 0 -64 1 -9 61 -12 244 -10
l242 2 1 243 1 242 -41 1 -41 0 40 18 40 18 -24 12 c-23 13 -18 16 95 70 65
31 130 62 144 68 l25 11 -28 7 c-25 7 -33 29 -11 31 5 0 34 12 64 25 30 14 90
38 133 54 78 30 96 45 54 45 -58 0 -34 22 146 129 48 29 87 54 87 56 0 1 -16
1 -35 -2 -19 -3 -35 -1 -35 4 0 5 30 38 68 74 87 84 122 124 101 117 -24 -9
-45 7 -32 24 26 32 98 279 85 292 -3 3 -12 -3 -20 -15 -8 -12 -18 -17 -23 -12
-5 5 -27 74 -49 153 -22 79 -43 147 -48 152 -5 5 -14 -3 -22 -16 l-13 -25 -27
37 c-15 21 -29 42 -31 48 -10 27 -114 194 -121 194 -3 0 -5 -11 -2 -25 10 -54
-23 -22 -124 120 -35 50 -67 91 -72 93 -4 2 -11 -11 -15 -27 -4 -17 -9 -31
-11 -31 -2 0 -41 32 -86 71 -68 59 -83 68 -88 53 -5 -12 -9 -14 -14 -6 -7 12
-45 35 -47 30z m-44 -1401 c0 -85 -3 -110 -15 -117 -27 -17 -29 -11 -28 78 0
48 0 92 -1 97 -1 11 -360 16 -362 6 -5 -32 -2 -346 3 -354 3 -6 29 -10 57 -8
55 2 64 -6 29 -29 -28 -17 -128 -22 -129 -6 -1 14 -1 417 0 432 1 7 71 10 224
10 l222 -1 0 -108z m2 -692 l0 -225 -61 0 c-173 -2 -381 1 -385 5 -11 12 -3
117 10 125 11 7 11 10 -3 15 -20 8 -13 32 12 45 17 9 18 4 18 -53 0 -34 0 -69
1 -77 2 -23 361 -23 362 0 0 8 1 90 2 182 l2 167 -60 3 -60 3 30 17 c17 10 52
17 81 18 l51 0 0 -225z"/>
<path d="M4418 3955 c-6 -7 9 -105 18 -114 3 -3 4 8 0 24 -3 17 -7 45 -8 63
-2 35 -2 34 -10 27z"/>
<path d="M2249 3810 c-4 -228 0 -433 9 -439 8 -5 421 -7 468 -2 11 1 18 407 8
461 l-5 26 -239 -1 -240 0 -1 -45z m467 -200 l1 -225 -216 0 c-119 0 -220 3
-226 7 -8 5 -12 290 -6 424 1 20 5 20 224 20 l222 -1 1 -225z"/>
<path d="M2309 3780 c-1 -19 -1 -309 0 -332 1 -16 17 -18 181 -18 180 0 180 0
181 23 5 159 2 337 -6 338 -5 1 -88 2 -182 3 -148 1 -173 -1 -174 -14z"/>
<path d="M3528 3703 c-30 -19 -49 -60 -47 -102 1 -17 4 -10 10 19 10 51 46 90
84 90 36 0 88 -33 176 -110 74 -66 159 -120 159 -102 0 4 -15 13 -32 20 -33
12 -52 26 -138 105 -62 56 -129 97 -159 97 -15 0 -38 -8 -53 -17z"/>
<path d="M3991 3682 c-20 -17 -46 -102 -31 -102 4 0 10 18 13 41 6 44 31 70
62 64 11 -2 56 -22 100 -44 44 -23 86 -41 95 -40 13 0 13 1 0 6 -8 3 -51 23
-95 45 -98 49 -117 53 -144 30z"/>
<path d="M4272 3587 c24 -9 118 -7 118 2 0 3 -31 6 -70 6 -45 0 -62 -3 -48 -8z"/>
<path d="M3491 3543 c18 -50 65 -93 103 -93 24 0 46 29 45 58 l-2 27 -4 -25
c-11 -60 -49 -66 -99 -16 -19 19 -34 43 -34 55 0 12 -4 21 -9 21 -6 0 -6 -10
0 -27z"/>
<path d="M3950 3548 c0 -6 -8 -20 -17 -31 -17 -19 -17 -20 5 -8 18 10 33 51
17 51 -3 0 -5 -5 -5 -12z"/>
<path d="M2273 3282 c-17 -2 -23 -10 -23 -28 0 -13 -1 -122 -1 -241 l0 -218
243 0 243 0 1 238 c1 170 -2 240 -10 243 -14 5 -421 10 -453 6z m438 -22 c3 0
6 -101 6 -225 l0 -225 -223 0 c-172 0 -224 3 -225 13 0 6 -2 107 -2 224 l-2
212 55 3 c42 2 357 1 391 -2z"/>
<path d="M2309 3213 c-6 -62 -2 -346 6 -351 6 -4 88 -7 183 -7 166 0 172 0
173 20 1 27 1 306 0 328 -1 15 -17 17 -181 17 -99 0 -180 -3 -181 -7z"/>
<path d="M3189 2926 c-3 -3 -43 -7 -89 -11 -47 -3 -101 -7 -120 -10 -19 -2
-66 -7 -105 -11 -64 -6 -97 -9 -118 -13 -11 -1 -5 -211 6 -218 5 -3 43 -5 84
-5 65 0 80 4 116 29 53 35 237 216 237 231 0 13 -4 15 -11 8z"/>
<path d="M3476 2777 c-60 -65 -64 -74 -41 -83 11 -5 12 -11 5 -24 -6 -10 -10
-21 -10 -23 0 -2 31 -25 69 -50 l69 -46 -5 30 c-4 30 -4 30 19 15 13 -9 57
-50 98 -91 l75 -75 13 31 13 31 73 -108 c40 -60 76 -118 80 -129 6 -16 9 -17
16 -5 6 8 10 23 10 33 0 55 46 -27 95 -172 l32 -95 18 27 c9 15 21 27 25 27
10 0 21 -86 26 -195 2 -49 3 -94 4 -99 0 -5 11 1 25 14 23 22 25 22 25 4 0
-10 -9 -66 -20 -124 -34 -181 -33 -163 -5 -144 14 9 25 14 25 11 0 -16 -46
-150 -66 -191 -13 -28 -24 -52 -24 -54 0 -2 11 -1 25 2 14 4 25 3 25 -1 0 -7
-81 -113 -117 -153 -28 -31 -29 -43 -3 -35 35 11 21 -11 -36 -59 l-57 -47 163
3 163 3 37 75 c21 41 49 109 63 150 23 68 33 110 54 225 10 53 10 327 0 390
-26 164 -93 341 -184 478 -66 100 -238 270 -350 344 -107 72 -237 136 -316
156 l-56 15 -55 -61z"/>
<path d="M2249 1535 c0 -11 -1 -120 -2 -242 -2 -190 0 -222 13 -225 8 -2 119
-4 245 -3 l230 0 1 243 c0 166 -3 242 -10 243 -6 1 -116 2 -244 3 -226 1 -232
0 -233 -19z m467 -225 l-1 -225 -222 -1 -223 0 -1 40 c-1 50 -1 399 0 406 1 3
102 5 224 5 l224 0 -1 -225z"/>
<path d="M2309 1475 c0 -11 -2 -93 -2 -182 l-2 -163 185 0 185 0 -1 176 c-1
96 -5 178 -9 182 -3 4 -85 7 -181 7 -168 0 -174 0 -175 -20z"/>
<path d="M2249 931 c-1 -54 0 -410 0 -428 1 -10 57 -13 244 -13 l243 0 0 243
-1 242 -242 1 -243 1 -1 -46z m467 -199 l1 -222 -225 2 -225 3 0 210 c1 116 2
215 2 222 1 9 56 11 224 10 l222 -2 1 -223z"/>
<path d="M2388 922 c-77 -3 -78 -3 -79 -30 -1 -36 -1 -291 0 -318 1 -19 6 -20
181 -20 117 0 180 4 181 11 1 15 1 275 0 317 l-1 37 -102 3 c-57 2 -138 2
-180 0z"/>
<path d="M2832 733 l0 -243 244 0 244 0 1 28 c0 31 0 330 -1 408 l0 52 -244
-1 -243 0 -1 -244z m469 219 c1 -11 1 -394 0 -419 l-1 -23 -225 0 -226 0 1
225 1 225 225 0 c123 -1 224 -4 225 -8z"/>
<path d="M2922 922 l-32 -3 2 -182 3 -182 181 0 181 -1 0 179 c1 132 -3 180
-12 183 -14 6 -276 10 -323 6z"/>
<path d="M3418 961 c-2 -9 -3 -117 -3 -241 l1 -225 245 -3 245 -2 -1 242 0
243 -242 1 c-215 1 -242 -1 -245 -15z m468 -223 l-1 -223 -225 0 -225 0 0 222
0 222 226 1 227 0 -2 -222z"/>
<path d="M3535 922 c-27 -2 -52 -7 -55 -12 -4 -7 -5 -328 -1 -351 1 -7 361 -6
362 1 4 28 3 344 -2 352 -6 10 -204 16 -304 10z"/>
<path d="M3998 967 c-2 -7 -4 -115 -3 -242 l1 -230 245 -3 244 -2 0 242 0 243
-242 2 c-178 1 -242 -2 -245 -10z m327 -12 l140 0 1 -222 0 -223 -226 0 -225
0 0 224 0 224 74 1 c41 1 77 3 80 6 2 3 7 2 10 -2 3 -5 69 -8 146 -8z"/>
<path d="M4083 922 c-23 -3 -23 -4 -23 -186 l0 -182 174 1 c96 0 178 4 183 8
12 13 10 357 -2 358 -34 3 -314 3 -332 1z"/>
</g>
</svg>
